<?xml version="1.0" encoding="UTF-8"?><svg id="a" xmlns="http://www.w3.org/2000/svg" viewBox="0 0 2564.84 2563.09"><path d="M1356,7.06c-50.4-6.93-100.73-6.6-151,1,25.37-5.69,51.21-8.35,77.5-8,24.91-.47,49.41,1.86,73.5,7Z" style="fill:#9c00a0; fill-rule:evenodd; isolation:isolate; opacity:.91;"/><path d="M1356,7.06c15.36,2.26,30.36,5.92,45,11,.08,1.25,.74,2.08,2,2.5,11.09,3.81,22.09,7.81,33,12,9.91,4.79,19.91,9.29,30,13.5,25.51,14.6,49.51,31.43,72,50.5,44.17,43.01,87.84,86.51,131,130.5,.33,1,1,1.67,2,2,202.95,203.28,405.95,406.61,609,610-48.5-.33-96.84,0-145,1v954h76c-118.67,119-237.33,238-356,357-6.61,4.94-12.61,10.61-18,17-4.67,4-9,8.33-13,13-8,7.33-15.67,15-23,23-5,4.33-9.67,9-14,14-8.33,7.67-16.33,15.67-24,24-5.33,4.67-10.33,9.67-15,15-7.67,7-15,14.33-22,22-4,3.33-7.67,7-11,11-9,8.33-17.67,17-26,26-4.33,3.67-8.33,7.67-12,12-7.33,6.67-14.33,13.67-21,21-1,.33-1.67,1-2,2-33.08,33.58-66.41,67.08-100,100.5-32.45,31.63-69.12,57.13-110,76.5-11.82,3.57-23.49,7.74-35,12.5-1.26,.42-1.92,1.25-2,2.5-4,2.09-8.33,3.42-13,4-20.92,5.25-41.92,9.58-63,13-2.79,.98-5.79,1.31-9,1-22.32,.84-44.66,1.17-67,1-4.2,.32-8.2-.02-12-1-18-2.78-36-5.78-54-9-6.97-2.98-14.3-4.98-22-6-4.28-.76-8.28-2.09-12-4-.08-1.25-.74-2.08-2-2.5-10.61-4.14-21.27-7.98-32-11.5-38.64-18.47-73.64-42.3-105-71.5l-105-105c-122.17-.17-244.17-.67-366-1.5,121.67,.17,243.33,0,365-.5-185.2-185.03-370.2-370.2-555-555.5,96.67,.17,193.33,0,290-.5,53.48-3.51,106.48-10.51,159-21,20.02-4.78,39.02-12.12,57-22,63.35-41.43,102.19-99.6,116.5-174.5,7.3-45.1,5.3-89.77-6-134-18.87-63.87-58.7-109.37-119.5-136.5-17.77-7.2-35.77-13.7-54-19.5,80.55-30.22,127.22-87.89,140-173,.77-.76,1.27-1.76,1.5-3,2.14-21.18,1.97-42.18-.5-63-10.19-79.63-50.19-138.8-120-177.5-35.45-16.81-72.78-26.48-112-29-141-.5-282-.67-423-.5v-1c204.33-203.67,408.33-407.67,612-612,44.49-44.33,89.16-88.49,134-132.5,21.83-18.41,45.16-34.58,70-48.5,24.53-11.76,49.87-21.59,76-29.5,1.07-.85,2.07-1.69,3-2.5,8.92-1.4,17.58-3.4,26-6,50.27-7.6,100.6-7.93,151-1Z" style="fill:#57007f; fill-rule:evenodd;"/><path d="M1205,8.06c-8.42,2.6-17.08,4.6-26,6,8.34-2.92,17.01-4.92,26-6Z" style="fill:#b700ad; fill-rule:evenodd; isolation:isolate; opacity:.09;"/><path d="M1179,14.06c-.93,.81-1.93,1.65-3,2.5-26.13,7.91-51.47,17.74-76,29.5,7.5-4.92,15.5-9.08,24-12.5,18.05-7.4,36.38-13.9,55-19.5Z" style="fill:#b300ab; fill-rule:evenodd; isolation:isolate; opacity:.34;"/><path d="M1401,18.06c22.76,7.02,44.43,16.36,65,28-10.09-4.21-20.09-8.71-30-13.5-10.91-4.19-21.91-8.19-33-12-1.26-.42-1.92-1.25-2-2.5Z" style="fill:#b500ac; fill-rule:evenodd; isolation:isolate; opacity:.17;"/><path d="M1100,46.06c-24.84,13.92-48.17,30.09-70,48.5-44.84,44.01-89.51,88.17-134,132.5-123.34-.46-246.68,.04-370,1.5-37.61,2.74-73.61,11.73-108,27-93.61,44.96-153.77,117.8-180.5,218.5-2.93,16.58-5.1,33.25-6.5,50-1,104.83-1.33,209.83-1,315h-68v122c-10.69,9.69-20.69,20.03-30,31-9.86,8.35-19.36,17.35-28.5,27-7.33,8.67-14.67,17.33-22,26-12.27,16.88-23.77,34.22-34.5,52-.49-238.35,.01-476.68,1.5-715,15.96-123.19,76.13-217.69,180.5-283.5,47.64-27.99,98.97-44.99,154-51,238.98-1.49,477.98-1.99,717-1.5Z" style="fill-rule:evenodd; isolation:isolate; opacity:1;"/><path d="M1466,46.06c242.35-.49,484.68,.01,727,1.5,111.18,13.81,200.02,65.31,266.5,154.5,38.27,53.92,60.94,113.92,68,180,1.49,245.65,1.99,491.32,1.5,737-23.81-49.23-56.14-92.23-97-129-7.33-8-15-15.67-23-23v-128h-56c.17-98.67,0-197.33-.5-296-.74-32.7-5.74-64.7-15-96-43.26-114.24-124.42-185.74-243.5-214.5-18.93-2.4-37.93-3.9-57-4.5-122.5-1-245.17-1.33-368-1-43.16-43.99-86.83-87.49-131-130.5-22.49-19.07-46.49-35.9-72-50.5Z" style="fill-rule:evenodd; isolation:isolate; opacity:1;"/><path d="M1669,227.06c122.83-.33,245.5,0,368,1-122.17-.33-244.17,0-366,1-1-.33-1.67-1-2-2Z" style="fill:#8b0000; fill-rule:evenodd;"/><path d="M896,227.06c-203.67,204.33-407.67,408.33-612,612h-53v-315c1.4-16.75,3.57-33.42,6.5-50,26.73-100.7,86.89-173.54,180.5-218.5,34.39-15.27,70.39-24.26,108-27,123.32-1.46,246.66-1.96,370-1.5Z" style="fill:#fe7b00; fill-rule:evenodd;"/><path d="M2037,228.06c19.07,.6,38.07,2.1,57,4.5,119.08,28.76,200.24,100.26,243.5,214.5,9.26,31.3,14.26,63.3,15,96,.5,98.67,.67,197.33,.5,296h-73c-203.05-203.39-406.05-406.72-609-610,121.83-1,243.83-1.33,366-1Z" style="fill:#cd0000; fill-rule:evenodd;"/><path d="M231,524.06v315h53v1h-54v-1c-.33-105.17,0-210.17,1-315Z" style="fill:#e69b54; fill-rule:evenodd;"/><path d="M230,839.06v1h-67v121h-1v-122h68Z" style="fill:#424142; fill-rule:evenodd;"/><path d="M230,840.06h54c141-.17,282,0,423,.5,39.22,2.52,76.55,12.19,112,29,69.81,38.7,109.81,97.87,120,177.5,1.58,22.04,1.24,44.04-1,66-12.78,85.11-59.45,142.78-140,173,18.23,5.8,36.23,12.3,54,19.5,60.8,27.13,100.63,72.63,119.5,136.5,11.3,44.23,13.3,88.9,6,134-14.31,74.9-53.15,133.07-116.5,174.5-17.98,9.88-36.98,17.22-57,22-52.52,10.49-105.52,17.49-159,21-96.67,.5-193.33,.67-290,.5H163V840.06h67Z" style="fill:#fefefe; fill-rule:evenodd;"/><path d="M1094,840.06c-.32,200.67,.02,401.34,1,602-.83-4.82-1.33-9.82-1.5-15-.83-195.83-.67-391.5,.5-587Z" style="fill:#a070b6; fill-rule:evenodd;"/><path d="M1094,840.06h273c-.17,201,0,402,.5,603,2.34,31.36,11.68,60.36,28,87,30.14,39.48,70.31,58.82,120.5,58,85.63-1.2,135.8-43.87,150.5-128,1.3-9.3,2.13-18.63,2.5-28,1-197.17,1.33-394.5,1-592h272v579c-.68,65.7-13.85,128.7-39.5,189-29.93,62.27-73.77,112.44-131.5,150.5-36.45,20.93-75.45,34.93-117,42-49.67,8.4-99.67,11.4-150,9-49.42-1.52-98.42-6.85-147-16-64.55-13.51-118.72-44.68-162.5-93.5-42.72-46.09-70.72-100.09-84-162-7.25-31.8-12.41-63.8-15.5-96-.98-200.66-1.32-401.33-1-602Z" style="fill:#fefefe; fill-rule:evenodd;"/><path d="M2135,840.06h273v954h-273V840.06Z" style="fill:#fefffe; fill-rule:evenodd;"/><path d="M2135,840.06c48.16-1,96.5-1.33,145-1h129v757c.33,66.17,0,132.17-1,198V840.06h-273Z" style="fill:#c2b6bd; fill-rule:evenodd;"/><path d="M162,961.06h1v641c-.67,0-1-.33-1-1,.17-212.67,0-425.33-.5-638-9.7,9.87-19.54,19.54-29.5,29,9.31-10.97,19.31-21.31,30-31Z" style="fill:#752c93; fill-rule:evenodd;"/><path d="M162,1601.06c-32.4-28.56-61.89-59.9-88.5-94-9.11-13.9-17.94-27.9-26.5-42-7.96-17.58-15.62-35.24-23-53-4.53-13.43-8.36-27.1-11.5-41-.93-1.36-1.77-2.69-2.5-4-1.18-9.54-2.84-18.88-5-28-1.41-14.81-2.74-29.47-4-44-1.33-9.33-1.33-18.67,0-28,.62-.11,1.12-.44,1.5-1,.25-14.04,1.08-28.04,2.5-42-.3-2.56,.03-4.89,1-7,9.06-41.49,22.73-81.49,41-120,10.73-17.78,22.23-35.12,34.5-52,7.33-8.67,14.67-17.33,22-26,9.14-9.65,18.64-18.65,28.5-27,9.96-9.46,19.8-19.13,29.5-29,.5,212.67,.67,425.33,.5,638Z" style="fill:#57007f; fill-rule:evenodd;"/><path d="M2409,967.06c8,7.33,15.67,15,23,23-7.58-6.07-14.74-12.74-21.5-20-.83,208.17-.67,416.17,.5,624-.33,1-1,1.67-2,2V967.06Z" style="fill:#702690; fill-rule:evenodd;"/><path d="M2432,990.06c40.86,36.77,73.19,79.77,97,129v1c6.58,16.41,12.58,33.07,18,50,.9,1.84,1.9,3.5,3,5,1.27,2.41,1.93,5.07,2,8,2.54,13.14,5.21,26.14,8,39,1.89,8.09,2.89,16.42,3,25,.75,31.74-.25,63.41-3,95-2.69,11.47-5.03,23.14-7,35-2.05,10.53-4.88,20.86-8.5,31-.38,1.44-1.21,2.44-2.5,3-4.91,10.72-9.24,21.72-13,33v1c-19.3,38.93-43.8,74.26-73.5,106-15.01,14.17-29.84,28.51-44.5,43-1.17-207.83-1.33-415.83-.5-624,6.76,7.26,13.92,13.93,21.5,20Z" style="fill:#57007f; fill-rule:evenodd;"/><path d="M439,1033.06c45.67-.17,91.34,0,137,.5,71.29,2.28,102.79,38.78,94.5,109.5-6.78,39.78-30.28,62.28-70.5,67.5-8.58,1.76-17.24,2.76-26,3-45,.5-90,.67-135,.5v-181Z" style="fill:#57007f; fill-rule:evenodd;"/><path d="M939,1047.06c2.47,20.82,2.64,41.82,.5,63-.23,1.24-.73,2.24-1.5,3,2.24-21.96,2.58-43.96,1-66Z" style="fill:#ac82bf; fill-rule:evenodd;"/><path d="M2529,1120.06c5.96,11.59,11.13,23.59,15.5,36,2.35,6.21,4.18,12.54,5.5,19-1.1-1.5-2.1-3.16-3-5-5.42-16.93-11.42-33.59-18-50Z" style="fill:#ae00a9; fill-rule:evenodd; isolation:isolate; opacity:.26;"/><path d="M1942,1419.06V840.06h-272c.33,197.5,0,394.83-1,592V839.06h274c.33,193.5,0,386.83-1,580Z" style="fill:#ba97ca; fill-rule:evenodd;"/><path d="M47,1097.06c-18.27,38.51-31.94,78.51-41,120,2.44-18.38,6.61-36.38,12.5-54,7.61-22.87,17.11-44.87,28.5-66Z" style="fill:#b000aa; fill-rule:evenodd; isolation:isolate; opacity:.42;"/><path d="M2552,1183.06c4.06,12.6,6.73,25.6,8,39-2.79-12.86-5.46-25.86-8-39Z" style="fill:#b700ad; fill-rule:evenodd; isolation:isolate; opacity:.16;"/><path d="M5,1224.06c-1.42,13.96-2.25,27.96-2.5,42-.38,.56-.88,.89-1.5,1-.1-14.61,1.24-28.94,4-43Z" style="fill:#98009e; fill-rule:evenodd; isolation:isolate; opacity:.89;"/><path d="M2563,1247.06c3.22,31.79,2.22,63.46-3,95,2.75-31.59,3.75-63.26,3-95Z" style="fill:#9c00a0; fill-rule:evenodd; isolation:isolate; opacity:.88;"/><path d="M1,1295.06c1.26,14.53,2.59,29.19,4,44-2.82-14.39-4.16-29.05-4-44Z" style="fill:#b900ae; fill-rule:evenodd; isolation:isolate; opacity:.19;"/><path d="M5,1339.06c2.16,9.12,3.82,18.46,5,28-2.67-9.03-4.34-18.37-5-28Z" style="fill:#b600ad; fill-rule:evenodd; isolation:isolate; opacity:.14;"/><path d="M2560,1342.06c-1.2,12.01-3.53,23.67-7,35,1.97-11.86,4.31-23.53,7-35Z" style="fill:#b700ad; fill-rule:evenodd; isolation:isolate; opacity:.15;"/><path d="M10,1367.06c.73,1.31,1.57,2.64,2.5,4,3.14,13.9,6.97,27.57,11.5,41-6.66-14.27-11.32-29.27-14-45Z" style="fill:#aa00a7; fill-rule:evenodd; isolation:isolate; opacity:.35;"/><path d="M587,1396.06h-147v193c-1-64.5-1.33-129.16-1-194,49.5-.33,98.84,0,148,1Z" style="fill:#9761af; fill-rule:evenodd;"/><path d="M587,1396.06c23.69-.12,46.69,3.72,69,11.5,27.99,12.67,44.82,34.17,50.5,64.5,4.11,28.23-1.56,54.23-17,78-12.42,16.14-28.59,26.64-48.5,31.5-14.36,4.23-29.03,6.56-44,7-52.33,.5-104.67,.67-157,.5v-193h147Z" style="fill:#57007f; fill-rule:evenodd;"/><path d="M2542,1411.06c-2.98,11.62-7.32,22.62-13,33,3.76-11.28,8.09-22.28,13-33Z" style="fill:#b600ad; fill-rule:evenodd; isolation:isolate; opacity:.26;"/><path d="M24,1412.06c7.38,17.76,15.04,35.42,23,53v1c-9.6-17.13-17.27-35.13-23-54Z" style="fill:#b500ac; fill-rule:evenodd; isolation:isolate; opacity:.25;"/><path d="M2529,1445.06c.17,245.33,0,490.67-.5,736-13.25,130.42-75.41,229.59-186.5,297.5-46.29,26.33-95.96,42.33-149,48-249.65,1.49-499.32,1.99-749,1.5,40.88-19.37,77.55-44.87,110-76.5,33.59-33.42,66.92-66.92,100-100.5,128.17,.33,256.17,0,384-1,15.73-.29,31.4-1.46,47-3.5,13.21-3.63,26.54-6.63,40-9,12.59-4.08,24.92-8.75,37-14,13.1-7.55,26.43-14.55,40-21,13.42-10.03,26.75-20.03,40-30,49.81-44.21,83.64-98.71,101.5-163.5,2.33-12.98,4.66-25.98,7-39,.67-11.33,1.33-22.67,2-34,.5-80.67,.67-161.33,.5-242h55c1-65.83,1.33-131.83,1-198,1-.33,1.67-1,2-2,14.66-14.49,29.49-28.83,44.5-43,29.7-31.74,54.2-67.07,73.5-106Z" style="fill-rule:evenodd; isolation:isolate; opacity:1;"/><path d="M47,1465.06c8.56,14.1,17.39,28.1,26.5,42,26.61,34.1,56.1,65.44,88.5,94,0,.67,.33,1,1,1v192h67c-.42,89.68,.08,179.34,1.5,269,3.38,34.21,12.05,66.88,26,98,11.51,23.29,24.84,45.29,40,66,3.65,5.32,7.65,10.32,12,15,12.48,11.81,24.98,23.65,37.5,35.5,4.86,1.52,8.52,4.52,11,9,10.51,6.75,20.84,13.75,31,21,11.6,5.13,22.93,10.8,34,17,11.48,4.72,23.14,9.05,35,13,13.39,2.68,26.73,5.68,40,9,15.6,2.04,31.27,3.21,47,3.5,121.83,.83,243.83,1.33,366,1.5l105,105c31.36,29.2,66.36,53.03,105,71.5-246.02,.49-492.02-.01-738-1.5-121.02-15.38-214.52-73.88-280.5-175.5-31.96-52.54-50.29-109.54-55-171-.5-238-.67-476-.5-714v-1Z" style="fill-rule:evenodd; isolation:isolate; opacity:1;"/><path d="M230,1794.06h125c184.8,185.3,369.8,370.47,555,555.5-121.67,.5-243.33,.67-365,.5-15.73-.29-31.4-1.46-47-3.5-13.27-3.32-26.61-6.32-40-9-11.86-3.95-23.52-8.28-35-13-11.07-6.2-22.4-11.87-34-17-10.16-7.25-20.49-14.25-31-21-2.48-4.48-6.14-7.48-11-9-12.52-11.85-25.02-23.69-37.5-35.5-4.35-4.68-8.35-9.68-12-15-15.16-20.71-28.49-42.71-40-66-13.95-31.12-22.62-63.79-26-98-1.42-89.66-1.92-179.32-1.5-269Z" style="fill:#0025fe; fill-rule:evenodd;"/><path d="M2211,1794.06h142c.17,80.67,0,161.33-.5,242-.67,11.33-1.33,22.67-2,34-2.34,13.02-4.67,26.02-7,39-17.86,64.79-51.69,119.29-101.5,163.5-13.25,9.97-26.58,19.97-40,30-13.57,6.45-26.9,13.45-40,21-12.08,5.25-24.41,9.92-37,14-13.46,2.37-26.79,5.37-40,9-15.6,2.04-31.27,3.21-47,3.5-127.5,.33-254.83,0-382-1,.74,.13,1.41-.04,2-.5,6.93-6.42,13.26-13.26,19-20.5,3.67-4.33,7.67-8.33,12-12,8.91-7.41,17.41-15.41,25.5-24,.46-.59,.63-1.26,.5-2,3.33-4,7-7.67,11-11,.74,.13,1.41-.04,2-.5,7.26-6.76,13.93-13.92,20-21.5,4.67-5.33,9.67-10.33,15-15,8.24-6.74,16.08-14.07,23.5-22,.46-.59,.63-1.26,.5-2,4.33-5,9-9.67,14-14,.74,.13,1.41-.04,2-.5,7.59-7.09,14.59-14.59,21-22.5,4-4.67,8.33-9,13-13,6.61-4.94,12.61-10.61,18-17,118.67-119,237.33-238,356-357Z" style="fill:#00bb16; fill-rule:evenodd;"/><path d="M1855,2151.06c-5.39,6.39-11.39,12.06-18,17,5.39-6.39,11.39-12.06,18-17Z" style="fill:#389938; fill-rule:evenodd;"/><path d="M1824,2181.06c-6.41,7.91-13.41,15.41-21,22.5-.59,.46-1.26,.63-2,.5,7.33-8,15-15.67,23-23Z" style="fill:#379938; fill-rule:evenodd;"/><path d="M1787,2218.06c.13,.74-.04,1.41-.5,2-7.42,7.93-15.26,15.26-23.5,22,7.67-8.33,15.67-16.33,24-24Z" style="fill:#359b36; fill-rule:evenodd;"/><path d="M1748,2257.06c-6.07,7.58-12.74,14.74-20,21.5-.59,.46-1.26,.63-2,.5,7-7.67,14.33-15,22-22Z" style="fill:#379938; fill-rule:evenodd;"/><path d="M1715,2290.06c.13,.74-.04,1.41-.5,2-8.09,8.59-16.59,16.59-25.5,24,8.33-9,17-17.67,26-26Z" style="fill:#369838; fill-rule:evenodd;"/><path d="M1677,2328.06c-5.74,7.24-12.07,14.08-19,20.5-.59,.46-1.26,.63-2,.5,6.67-7.33,13.67-14.33,21-21Z" style="fill:#379739; fill-rule:evenodd;"/><path d="M1656,2349.06c127.17,1,254.5,1.33,382,1-127.83,1-255.83,1.33-384,1,.33-1,1-1.67,2-2Z" style="fill:#01a713; fill-rule:evenodd;"/><path d="M1121,2528.06c10.73,3.52,21.39,7.36,32,11.5,1.26,.42,1.92,1.25,2,2.5-11.63-4.15-22.96-8.82-34-14Z" style="fill:#b700ad; fill-rule:evenodd; isolation:isolate; opacity:.29;"/><path d="M1444,2528.06c-12.19,5.26-24.53,10.26-37,15,.08-1.25,.74-2.08,2-2.5,11.51-4.76,23.18-8.93,35-12.5Z" style="fill:#b400ac; fill-rule:evenodd; isolation:isolate; opacity:.46;"/><path d="M1167,2546.06c7.7,1.02,15.03,3.02,22,6-7.6-1.4-14.93-3.4-22-6Z" style="fill:#b600ad; fill-rule:evenodd; isolation:isolate; opacity:.1;"/><path d="M1189,2552.06c18,3.22,36,6.22,54,9-18.44-1.07-36.44-4.07-54-9Z" style="fill:#b500ac; fill-rule:evenodd; isolation:isolate; opacity:.21;"/><path d="M1394,2547.06c-20.38,6.74-41.38,11.08-63,13,21.08-3.42,42.08-7.75,63-13Z" style="fill:#b700ad; fill-rule:evenodd; isolation:isolate; opacity:.22;"/><path d="M1322,2561.06c-12.96,1.52-26.13,2.19-39.5,2-9.34,0-18.51-.33-27.5-1,22.34,.17,44.68-.16,67-1Z" style="fill:#bb00af; fill-rule:evenodd; isolation:isolate; opacity:.35;"/></svg>