<?xml version="1.0" encoding="UTF-8"?><svg xmlns="http://www.w3.org/2000/svg" viewBox="0 0 2551.36 2547.56"><g id="a"><rect x="28.76" y="46.14" width="2482.36" height="2482.36" rx="370.12" ry="370.12" style="stroke:#00ff04; stroke-miterlimit:10;"/></g><g id="b"><rect x="211.76" y="229.32" width="1029.21" height="1029.21" rx="319.77" ry="319.77" style="fill:#f60; stroke:#00ff04; stroke-miterlimit:10;"/></g><g id="c"><rect x="1299.91" y="203.71" width="1029.21" height="1029.21" rx="319.77" ry="319.77" style="fill:red; stroke:#00ff04; stroke-miterlimit:10;"/></g><g id="d"><rect x="1320.21" y="1326.32" width="1029.21" height="1029.21" rx="319.77" ry="319.77" style="fill:#0c0; stroke:#00ff04; stroke-miterlimit:10;"/></g><g id="e"><rect x="211.76" y="1326.32" width="1029.21" height="1029.21" rx="319.77" ry="319.77" style="fill:#30f; stroke:#00ff04; stroke-miterlimit:10;"/></g><g id="f"><rect x="255.13" y="271.01" width="2021.41" height="2021.41" rx="395.98" ry="395.98" transform="translate(1277.07 -519.67) rotate(45)" style="fill:#9000bc; stroke:#00ff04; stroke-miterlimit:10;"/></g><g id="g"><g><path d="M637.97,1742.59H354.19c-40.97,0-70.2-9.17-87.73-27.53s-26.28-47.58-26.28-87.67V929.8c0-40.92,8.97-70.36,26.92-88.3,17.94-17.94,46.97-26.91,87.09-26.91h300.89c44.34,0,82.77,2.75,115.28,8.22,32.52,5.48,61.66,16.02,87.42,31.61,21.88,13.09,41.23,29.66,58.06,49.7s29.66,42.2,38.5,66.47c8.84,24.28,13.27,49.92,13.27,76.92,0,92.86-46.3,160.81-138.86,203.86,121.61,38.83,182.42,114.38,182.42,226.64,0,51.91-13.27,98.66-39.77,140.22-26.52,41.58-62.28,72.28-107.31,92.11-28.3,11.81-60.81,20.14-97.55,24.98-36.75,4.84-79.61,7.27-128.58,7.27Zm-209.8-787v240h172.41c46.91,0,83.14-4.42,108.7-13.3,25.56-8.86,45.11-25.75,58.64-50.66,10.61-17.72,15.92-37.56,15.92-59.53,0-46.84-16.7-77.98-50.09-93.39s-84.31-23.12-152.78-23.12h-152.8Zm195.86,375h-195.86v271h202.2c127.19,0,190.8-45.8,190.8-137.41,0-46.84-16.48-80.83-49.45-101.94-32.97-21.09-82.19-31.66-147.69-31.66Z" style="fill:#fff;"/><path d="M1124.95,1359.02v-446.44c0-38,8.53-66.48,25.62-85.48s39.56-28.5,67.42-28.5,52.22,9.52,69.31,28.52,25.64,47.52,25.64,85.53v456.83c0,51.95,5.8,95.36,17.42,130.2s32.22,61.88,61.8,81.09,70.98,28.83,124.23,28.83c73.52,0,125.48-19.53,155.91-58.61,30.42-39.06,45.64-98.31,45.64-177.72v-460.62c0-38.44,8.44-67.05,25.31-85.84s39.45-28.2,67.73-28.2,51.17,9.41,68.69,28.19c17.5,18.8,26.27,47.41,26.27,85.83v446.58c0,72.64-7.08,133.23-21.2,181.8-14.14,48.56-40.83,91.22-80.08,127.95-33.78,31.16-73.06,53.88-117.83,68.19s-97.12,21.47-157.09,21.47c-71.38,0-132.83-7.72-184.34-23.11-51.53-15.41-93.55-39.27-126.06-71.56-32.53-32.28-56.39-73.66-71.59-124.11-15.2-50.44-22.8-110.7-22.8-180.8Z" style="fill:#fff;"/><path d="M2116.61,1643.97V912.58c0-38,8.64-66.48,25.95-85.48,17.3-19,39.66-28.5,67.09-28.5s51.17,9.41,68.69,28.19c17.5,18.78,26.27,47.39,26.27,85.8v731.39c0,38.44-8.77,67.14-26.27,86.14-17.52,18.98-40.41,28.48-68.69,28.48s-49.28-9.61-66.78-28.81c-17.52-19.2-26.27-47.81-26.27-85.81Z" style="fill:#fff;"/></g></g></svg>